<svg xmlns="http://www.w3.org/2000/svg" viewBox="270 0 332 374"><path fill="#8CC63F" d="M581.531 1C582 25.463 582 49.926 582 75h-5.676c-37.991 0-75.99-.453-113.971.165-24.008.39-45.772 7.99-64.717 23.52-19.367 15.876-31.493 36.012-36.382 60.207-4.433 21.932-1.98 43.485 8.676 63.468 3.275 6.14 3.672 11.495 1.08 17.82-5.194 12.683-10.018 25.522-14.693 38.405-.773 2.129-.84 5.398.322 7.036.784 1.103 4.545.924 6.559.186 14.248-5.218 28.418-10.654 42.542-16.2 3.56-1.4 6.5-1.683 10.174.25 14.76 7.763 30.468 11.694 47.312 11.223 13.98-.39 27.98-.08 42.528-.08v-52.662h75.97V356h-5.654c-36.992 0-73.983.02-110.975-.006-31.756-.024-61.77-7.076-89.492-22.811-27.454-15.584-49.364-36.913-65.605-64.06-10.428-17.429-18.181-36.049-21.592-55.952-2.492-14.548-3.627-29.588-3.121-44.332.855-24.92 7.373-48.806 18.87-71.017 7.087-13.692 15.912-26.251 26.207-37.924 15.481-17.554 33.855-31.072 54.652-41.254 16.48-8.069 33.84-13.873 52.3-15.669 3.762-.366 7.515-.82 11.479-1.604C493.02 1 537.042 1 581.53 1z"/><path fill="#8CC63F" d="M495.059 187c-11.831-.242-18.878-8.414-19.15-20.73-.215-9.788 10.082-18.73 19.004-18.414 8.579.306 15.136 3.349 18.515 11.228 3.352 7.817 2.376 15.67-3.333 22.102-3.667 4.13-8.755 6.315-15.036 5.814zM410.213 177.5c-5.723-12.303-.377-25.988 11.581-28.836 7.705-1.835 14.623-.658 20.191 5.387 6.033 6.55 6.84 14.308 3.287 21.95-3.274 7.043-9.157 11.122-17.556 11.08-7.57-.036-13.24-2.982-17.503-9.58zM573.633 151.143c10.155 8.69 9.946 19.109 5.443 26.673-4.3 7.221-13.579 11.09-21.774 8.909-8.772-2.335-14.076-11.283-14.554-18.168-1.233-17.748 18.51-25.597 30.885-17.414z"/></svg>